<?xml version="1.0" encoding="UTF-8"?>
<svg xmlns="http://www.w3.org/2000/svg" width="71" height="23" viewBox="0 0 71 23" fill="none">
  <g clip-path="url(#clip0_863_29)">
    <path d="M59.5508 4.92511C60.4919 4.02283 61.482 3.17297 62.5165 2.37938C63.2802 1.88933 63.153 1.74295 63.1084 1.31654C63.1069 1.17509 63.0514 1.03958 62.9532 0.937803C62.8549 0.836024 62.7215 0.775698 62.5802 0.769203C62.4019 0.76785 62.2244 0.744333 62.0519 0.699195C61.8663 0.630172 61.7049 0.508528 61.5873 0.349156C61.441 0.158226 61.2946 0.304606 61.1227 0.4128C57.0559 2.95217 53.9501 7.71906 52.7218 9.12557C52.607 9.30139 52.4521 9.44751 52.27 9.55198C51.9899 9.73655 50.0106 11.4104 49.3742 11.9322C49.0305 12.2059 46.8794 13.9688 46.3002 14.478C45.7211 14.9871 44.9828 15.579 44.3909 16.0181C43.8598 16.4587 43.2682 16.8209 42.6343 17.0937C42.0164 17.2811 41.3674 17.3438 40.725 17.2783C40.2541 17.2337 40.2223 17.1701 40.2223 17.1701C40.2223 17.1701 40.4705 17.2019 41.336 16.7119C43.1244 15.7063 43.4363 14.8026 43.5444 14.1661C43.5957 13.9936 43.5998 13.8104 43.5561 13.6358C43.5124 13.4611 43.4227 13.3014 43.2962 13.1733C43.1817 13.0651 42.978 12.9951 42.8062 12.8487C42.6343 12.7023 42.5707 12.6641 42.5071 12.6196C42.2143 12.4223 41.9534 12.4923 41.4697 12.7151C40.5638 13.1193 39.6931 13.5983 38.8667 14.147C37.8182 14.7637 36.7222 15.2958 35.589 15.7381C35.3663 15.8336 35.2008 15.8463 35.2072 15.8018L35.3854 15.6617C35.8441 15.1608 36.1586 14.545 36.2955 13.8797C36.3782 13.5997 36.41 13.3451 36.1045 13.186C35.9263 13.0906 35.7227 12.9633 35.5699 12.8742C35.4392 12.7815 35.3032 12.6965 35.1626 12.6196C34.9977 12.536 34.8098 12.5091 34.628 12.5432C34.2373 12.6407 33.8561 12.7728 33.4888 12.9378C32.9796 13.1542 29.6702 14.7962 28.1491 15.3944C27.0931 15.8619 25.9806 16.1893 24.8397 16.3682C24.3369 16.3682 24.4642 16.1518 24.5087 15.9736C24.5533 15.7954 24.7315 15.3753 24.7315 15.3753C24.8588 15.3753 24.216 15.3753 26.6408 14.7389C28.741 14.1598 29.1865 13.587 29.3774 13.3579C29.5513 13.1467 29.6438 12.8803 29.6384 12.6069C29.6316 12.423 29.5995 12.241 29.5429 12.0659C29.4887 11.817 29.4163 11.5724 29.3265 11.334C29.2183 11.0412 28.5628 10.4684 26.628 11.6649C24.4578 13.0142 24.0823 13.8606 24.0823 13.8606C23.7705 14.0007 22.3958 14.4971 21.6893 14.7898C20.9829 15.0826 18.1889 16.0181 17.718 16.0945C17.247 16.1709 17.1516 16.2218 17.0243 16.0945C16.897 15.9672 16.7442 15.7445 16.7442 15.7445C16.7003 15.6836 16.6396 15.6367 16.5696 15.6096C16.4995 15.5825 16.4231 15.5763 16.3496 15.5917C16.2033 15.6299 16.1078 15.8018 16.2605 16.1836C16.5295 16.9097 17.0248 17.53 17.6734 17.9529C17.3934 17.902 17.0943 17.8447 16.7761 17.8002C15.4178 17.64 14.0828 17.3217 12.7983 16.8519C11.6264 16.4233 10.5289 15.8134 9.54617 15.0444C9.15158 14.758 9.1134 14.6753 9.08794 14.5671C9.07896 14.5156 9.08364 14.4626 9.1015 14.4135C9.11937 14.3643 9.1498 14.3208 9.18977 14.287C9.45049 14.0823 9.73463 13.9092 10.0362 13.7715C10.4117 13.5806 24.1332 8.74371 25.0688 8.5146C26.0043 8.28548 28.0282 7.35629 33.2979 5.62519C38.5675 3.89409 40.8014 1.8766 41.1769 1.5902C41.2953 1.51825 41.3936 1.41748 41.4626 1.2973C41.5316 1.17711 41.5691 1.04141 41.5715 0.902854C41.5715 0.711924 41.5715 0.813753 41.5715 0.419164C41.5715 0.0245755 41.3042 0.107312 41.1324 0.132769C40.8716 0.194667 40.6145 0.271159 40.3623 0.361885C40.1586 0.419164 37.9693 1.44382 35.6781 2.5894C33.387 3.73498 25.3552 7.25446 24.9797 7.4072C24.6042 7.55995 22.0648 8.55278 21.352 8.82008C20.6392 9.08739 18.6026 9.71745 18.0044 9.88293C17.4061 10.0484 12.5501 11.2704 12.2128 11.3531C11.8755 11.4358 10.1508 11.8177 9.66709 11.8813C9.1834 11.945 8.19693 12.0086 7.53504 12.0404C8.39426 10.6471 9.18233 9.2112 9.89621 7.73815C9.97186 7.58106 9.98841 7.40197 9.94283 7.23368C9.89725 7.06538 9.79259 6.91913 9.648 6.82168C9.48419 6.69646 9.33477 6.55345 9.2025 6.39527C9.16139 6.3504 9.11088 6.31514 9.05459 6.29203C8.99829 6.26891 8.93758 6.2585 8.8768 6.26154C8.81602 6.26458 8.75665 6.28099 8.70294 6.30961C8.64923 6.33823 8.60249 6.37834 8.56606 6.4271C6.94937 8.1155 5.42197 9.8872 3.99011 11.7349C2.75408 13.3501 1.68773 15.0882 0.80794 16.9219C0.597917 17.5583 0.496088 17.8383 0.769754 18.1947C1.04342 18.5512 1.26617 18.3411 1.49529 18.1947C3.09216 16.9834 4.57102 15.6239 5.91214 14.1343C6.03942 13.9879 6.17307 13.8352 6.30036 13.6761C6.29954 13.8888 6.28679 14.1012 6.26217 14.3125C6.20614 14.6017 6.23185 14.9009 6.3364 15.1763C6.44095 15.4517 6.62021 15.6926 6.85406 15.8718C12.9384 20.435 15.185 20.8041 16.3115 21.0396C17.461 21.214 18.6248 21.2758 19.7864 21.2242C20.5367 21.1644 21.2915 21.253 22.0075 21.4851C22.5994 21.6724 23.1064 22.0622 23.4395 22.5861C23.6114 22.9489 23.8787 22.9616 23.9423 22.7834C24.2032 22.0897 23.8341 21.2496 22.994 20.3904C22.0211 19.5375 20.8872 18.8883 19.6591 18.4811C19.4173 18.3984 19.099 18.2966 18.7235 18.2011C19.0838 18.1417 19.4376 18.0479 19.78 17.9211C21.016 17.4595 22.2016 16.8731 23.3186 16.1709C23.4013 16.1263 23.465 16.0818 23.535 16.1709C23.7211 16.53 23.9338 16.8746 24.1714 17.2019C24.4133 17.4565 24.6742 17.6856 25.9025 17.3992C26.8559 17.1371 27.7622 16.7269 28.5883 16.1836C29.1483 15.8654 30.1221 15.3881 30.4276 15.2544L31.4268 14.8217C31.8086 14.6562 33.3361 14.0452 33.7052 13.9052C34.6344 13.5679 34.4816 13.7906 34.4816 13.7906C34.4816 13.7906 34.0934 14.2743 33.9025 14.478C33.6394 14.7824 33.284 14.9924 32.8905 15.0762C32.6536 15.1146 32.4107 15.0696 32.2032 14.9489C32.0862 14.8986 31.9591 14.8765 31.832 14.8842C31.7048 14.8919 31.5813 14.9294 31.4713 14.9935C31.3633 15.0576 31.2766 15.1522 31.2222 15.2655C31.1679 15.3787 31.1482 15.5055 31.1658 15.6299C31.2487 16.043 31.4348 16.4283 31.7068 16.75C31.9592 17.0734 32.2741 17.3426 32.6327 17.5416C32.9913 17.7406 33.3864 17.8653 33.7943 17.9084C34.4908 17.9205 35.1829 17.795 35.8309 17.5392C36.3718 17.3674 38.3766 16.3682 38.3766 16.3682C38.5421 16.2982 38.5803 16.33 38.6248 16.3682C39.8149 18.0675 40.9987 18.3602 40.9987 18.3602C42.4052 18.8312 43.7481 18.2711 44.8173 17.8065C45.8662 17.2616 46.8725 16.6382 47.8276 15.9418L48.5023 15.3499C48.5023 15.3499 48.4004 15.6554 48.2731 15.9863C48.0231 16.7597 47.8442 17.5543 47.7385 18.3602C47.6113 19.3976 47.9613 19.3531 48.2095 19.3976C48.3614 19.4478 48.5247 19.4529 48.6794 19.4122C48.8342 19.3716 48.9738 19.2869 49.0814 19.1685C49.2533 19.0157 49.5142 18.6912 50.0488 17.3419C50.7143 15.4976 51.6822 13.7769 52.9128 12.2505C54.9134 9.62459 57.1341 7.17395 59.5508 4.92511ZM27.5954 11.8622C27.9136 11.6904 28.1682 11.7222 28.2319 11.9131C28.2653 11.99 28.2695 12.0763 28.2437 12.156C28.2179 12.2357 28.1639 12.3032 28.0918 12.3459C27.9391 12.4605 26.0934 13.3388 25.9152 13.3833L25.6607 13.447C26.2612 12.8667 26.9083 12.3367 27.5954 11.8622ZM39.204 15.5917C39.5667 15.369 41.2151 14.1661 41.3424 14.0961L41.476 14.0134C41.476 14.0134 41.5715 14.0134 41.5588 14.0643C41.5269 14.1949 41.4843 14.3226 41.4315 14.4462C41.3586 14.6348 41.2601 14.8126 41.1387 14.9744C41.0231 15.1647 40.8743 15.3328 40.6996 15.4708C40.4867 15.6617 40.2199 15.7817 39.9359 15.8145C39.2994 15.8781 39.204 15.5917 39.204 15.5917Z" fill="#FCFCF7"></path>
    <path d="M68.4795 15.3246C68.3395 15.3819 68.4095 15.3628 67.6076 15.6937C66.8057 16.0247 64.5782 16.763 64.54 16.5784C64.5011 16.2467 64.5585 15.9109 64.7055 15.611C65.2546 14.7481 65.8583 13.9211 66.513 13.1353C66.6339 12.9698 66.7357 13.078 67.1494 12.5434C67.5631 12.0088 66.9076 11.7606 66.2711 11.5951C65.3362 11.4524 64.3874 11.4225 63.4454 11.506C63.2035 11.506 63.2735 11.6779 63.3244 11.7415C63.3676 11.8026 63.3864 11.8776 63.3769 11.9519C63.3675 12.0261 63.3306 12.0941 63.2735 12.1425C61.5545 13.7978 59.5686 15.1512 57.3992 16.1456C56.8519 16.3875 56.7628 16.4002 56.5401 16.3875C56.3173 16.3747 56.3364 15.9992 56.3173 15.9038C56.3034 15.828 56.3034 15.7504 56.3173 15.6747L56.4955 15.5792C57.7604 14.9259 58.8831 14.0282 59.7986 12.938C59.875 12.8628 59.9357 12.7731 59.9771 12.6742C60.0185 12.5754 60.0398 12.4692 60.0398 12.362C60.0398 12.2548 60.0185 12.1487 59.9771 12.0498C59.9357 11.9509 59.875 11.8613 59.7986 11.786C59.5546 11.5227 59.23 11.348 58.8758 11.2896C58.3763 11.2047 57.8648 11.2224 57.3724 11.3416C56.88 11.4609 56.417 11.6792 56.0118 11.9833C55.5233 12.2894 55.1204 12.7144 54.841 13.2187C54.5616 13.7229 54.4148 14.2899 54.4144 14.8664C53.9628 15.2432 53.4745 15.5737 52.9569 15.8529C52.696 15.9801 52.3905 16.012 52.2441 15.8529C52.0977 15.6937 52.0086 15.5792 51.8432 15.5919C51.793 15.5968 51.7448 15.6143 51.7032 15.6428C51.5886 15.7447 51.6332 16.0883 51.665 16.7248C51.6706 16.8204 51.6953 16.914 51.7376 17C51.7798 17.086 51.8389 17.1626 51.9112 17.2255C51.9836 17.2883 52.0677 17.3361 52.1588 17.366C52.2498 17.3958 52.3459 17.4072 52.4414 17.3994C52.7163 17.4306 52.9945 17.4112 53.2624 17.3421C53.7217 17.1775 54.1649 16.9709 54.5862 16.7248C54.7962 16.5848 54.8662 16.7248 54.879 16.763C55.1138 17.1413 55.4546 17.4423 55.8591 17.6285C56.3921 17.8183 56.9744 17.8183 57.5074 17.6285C58.5743 17.2471 59.536 16.6191 60.3141 15.7956C61.1277 15.1236 61.9775 14.4969 62.8598 13.9181C63.0444 13.7972 63.8463 13.1989 63.8463 13.1989L64.1136 13.3262C64.1136 13.3262 63.8527 13.5362 63.7445 13.6508C63.2896 14.1979 62.9906 14.8574 62.8789 15.5601C62.7135 16.4447 63.2481 16.6929 63.5154 17.1448C63.7827 17.5967 63.7445 17.9276 64.6037 18.1122C64.9816 18.1473 65.3628 18.105 65.7239 17.988C66.085 17.8709 66.4184 17.6814 66.7039 17.4312C67.4681 16.9126 68.1613 16.2964 68.7659 15.5983C69.0078 15.2101 68.6323 15.2737 68.4859 15.3373M57.1319 12.4989C57.7684 12.0661 57.9975 12.2188 58.093 12.3016C58.1884 12.3843 58.3921 12.5498 58.2139 12.7025C58.0357 12.8553 57.1319 13.5044 56.9792 13.5935C56.808 13.7302 56.6141 13.8358 56.4064 13.9054C56.396 13.6283 56.4573 13.3532 56.5844 13.1068C56.7115 12.8604 56.9001 12.651 57.1319 12.4989Z" fill="#FCFCF7"></path>
    <path d="M69.9125 12.1672V11.9571C69.9125 11.8935 69.9125 11.8871 69.9888 11.8871C70.0071 11.8853 70.0256 11.8874 70.043 11.8934C70.0604 11.8993 70.0763 11.909 70.0896 11.9217C70.1029 11.9344 70.1133 11.9498 70.1201 11.9669C70.1269 11.984 70.1299 12.0024 70.1288 12.0208C70.1308 12.0449 70.1259 12.0691 70.1146 12.0905C70.1034 12.1119 70.0862 12.1297 70.0652 12.1417C70.0319 12.1513 69.9966 12.1513 69.9634 12.1417L69.9125 12.1672ZM70.4216 12.5299C70.3939 12.5141 70.3682 12.4948 70.3452 12.4727C70.2703 12.3899 70.2061 12.2979 70.1543 12.199C70.1992 12.1889 70.2394 12.1639 70.2683 12.1281C70.2972 12.0923 70.3131 12.0477 70.3134 12.0017C70.3134 11.8299 70.1607 11.798 70.0334 11.798H69.6388V11.8617C69.7343 11.8617 69.7406 11.8617 69.7406 11.9699V12.3645C69.7406 12.4727 69.7406 12.4727 69.6324 12.479V12.5681H70.0207V12.4981C69.9252 12.4981 69.9125 12.4981 69.9125 12.3836V12.2435C69.9282 12.2421 69.9441 12.2457 69.9577 12.2536C69.9714 12.2616 69.9823 12.2737 69.9888 12.2881C69.9888 12.3263 70.0461 12.4026 70.097 12.4727C70.1286 12.5161 70.1712 12.5502 70.2205 12.5715C70.2697 12.5928 70.3238 12.6004 70.3771 12.5936L70.4216 12.5299ZM69.9952 11.5816C70.0763 11.5823 70.1564 11.5996 70.2305 11.6325C70.3046 11.6653 70.3712 11.7131 70.4261 11.7728C70.481 11.8324 70.5231 11.9028 70.5496 11.9794C70.5762 12.056 70.5868 12.1372 70.5807 12.2181C70.5708 12.3312 70.5283 12.439 70.4583 12.5284C70.3882 12.6177 70.2937 12.6848 70.1862 12.7214C70.0788 12.758 69.9629 12.7626 69.8529 12.7346C69.7429 12.7066 69.6434 12.6471 69.5665 12.5636C69.4896 12.48 69.4387 12.3759 69.42 12.264C69.4012 12.152 69.4154 12.037 69.4608 11.9329C69.5062 11.8288 69.5809 11.7402 69.6758 11.6779C69.7707 11.6155 69.8817 11.5821 69.9952 11.5816ZM69.9952 11.448C69.895 11.4454 69.7953 11.463 69.7019 11.4996C69.6086 11.5362 69.5235 11.5911 69.4518 11.6611C69.38 11.7311 69.323 11.8147 69.284 11.9071C69.2451 11.9995 69.2251 12.0987 69.2251 12.199C69.2225 12.2983 69.2401 12.3972 69.2769 12.4895C69.3137 12.5818 69.369 12.6656 69.4392 12.7359C69.5095 12.8061 69.5933 12.8614 69.6856 12.8982C69.7779 12.935 69.8768 12.9526 69.9761 12.95C70.1748 12.9483 70.3648 12.8687 70.5053 12.7282C70.6458 12.5877 70.7254 12.3976 70.7271 12.199C70.7271 11.9998 70.648 11.8088 70.5071 11.668C70.3663 11.5271 70.1753 11.448 69.9761 11.448" fill="#FCFCF7"></path>
  </g>
  <defs>
    <clipPath id="clip0_863_29">
      <rect width="70.2516" height="22.7843" fill="white" transform="translate(0.680664 0.10791)"></rect>
    </clipPath>
  </defs>
</svg>
