<?xml version="1.0" encoding="UTF-8"?>
<svg xmlns="http://www.w3.org/2000/svg" width="136" height="46" viewBox="0 0 136 46" fill="none">
  <g clip-path="url(#clip0_943_1945)">
    <mask id="mask0_943_1945" style="mask-type:luminance" maskUnits="userSpaceOnUse" x="0" y="0" width="136" height="46">
      <path d="M135.567 0H0V45.5686H135.567V0Z" fill="white"></path>
    </mask>
    <g mask="url(#mask0_943_1945)">
      <path fill-rule="evenodd" clip-rule="evenodd" d="M10.3705 8.98814V5.34022C10.3705 4.16941 9.72952 4.1524 8.83453 4.13599V3.69975C9.72952 3.71676 10.5227 3.73377 11.333 3.73377C12.0587 3.73377 12.8009 3.69975 13.5603 3.69975V4.13539C12.666 4.15179 12.025 4.1682 12.025 5.33961V13.74C12.025 14.9108 12.666 14.9279 13.5603 14.9443V15.3792C12.801 15.36 12.0416 15.3491 11.2821 15.3464C10.4889 15.3464 9.71234 15.3628 8.83453 15.3792V14.9443C9.72952 14.9279 10.3705 14.9108 10.3705 13.74V9.67349H3.55234V13.74C3.55234 14.9108 4.19398 14.9279 5.08835 14.9443V15.3792C4.27863 15.3792 3.55234 15.3464 2.81009 15.3464C1.99976 15.3464 1.2066 15.3628 0.362534 15.3792V14.9443C1.25691 14.9279 1.89855 14.9108 1.89855 13.74V5.34022C1.89855 4.16941 1.25691 4.1524 0.362534 4.13599V3.69975C1.15569 3.71676 1.93228 3.73377 2.6917 3.73377C3.46768 3.73377 4.24428 3.71676 5.08835 3.69975V4.13539C4.19398 4.15179 3.55234 4.1682 3.55234 5.33961V8.98754L10.3705 8.98814ZM16.4121 8.35261C16.4121 7.71647 15.9564 7.61622 15.1632 7.61622V7.1812C15.8049 7.1976 16.463 7.21461 17.1041 7.21461C17.7788 7.21461 18.488 7.1976 19.1124 7.1812V7.61622C18.3193 7.61622 17.8635 7.71647 17.8635 8.35261V14.2085C17.8635 14.8452 18.3193 14.9449 19.1124 14.9449V15.3799C18.4432 15.3602 17.7737 15.3493 17.1041 15.3471C16.463 15.3471 15.8049 15.3635 15.1632 15.3799V14.9449C15.9564 14.9449 16.4121 14.8452 16.4121 14.2085V8.35261ZM21.019 13.3554H21.4072C21.7447 14.5269 22.2685 15.1459 23.5003 15.1459C24.8002 15.1459 25.1038 14.2759 25.1038 13.757C25.1038 13.0711 24.7155 12.636 23.5843 12.0503C21.728 11.0965 21.2386 10.4609 21.2386 9.15583C21.2386 8.01784 22.2348 6.98069 23.7027 6.98069C24.3444 6.98069 25.1369 7.13076 25.6939 7.14777L25.846 8.78764H25.4914C25.3062 8.11809 24.935 7.41511 23.8211 7.41511C22.9432 7.41511 22.3525 7.98441 22.3525 8.75423C22.3525 9.55684 22.6059 9.8752 24.226 10.662C26.0147 11.5314 26.3527 12.2344 26.3527 13.2886C26.3527 14.6271 25.1038 15.581 23.3653 15.581C22.5887 15.581 21.9139 15.4303 21.2723 15.1295L21.019 13.3554ZM31.2631 7.71647H29.9811C28.9511 7.71647 28.7481 7.85014 28.4616 8.98814H28.023L28.2591 6.77958H28.5966C28.5966 7.09735 28.9848 7.1812 29.3388 7.1812H34.7228C35.1112 7.1812 35.3136 7.1812 35.6178 6.77958H35.9552L35.7865 8.98814H35.3307C35.2296 7.91759 35.094 7.71647 34.4026 7.71647H32.7151V14.2085C32.7151 14.8452 33.1703 14.9449 34.0646 14.9449V15.3799C33.3389 15.3635 32.6304 15.3471 31.9551 15.3471C31.3141 15.3471 30.6558 15.3635 29.913 15.3799V14.9449C30.8073 14.9449 31.2631 14.8452 31.2631 14.2085V7.71647ZM42.0478 15.0457C44.1739 15.0457 44.8492 13.2047 44.8492 11.3978C44.8492 9.05558 43.5156 7.51536 41.727 7.51536C39.702 7.51536 38.8917 9.27249 38.8917 11.08C38.8917 13.322 40.2756 15.0457 42.0478 15.0457ZM41.9803 6.98008C44.7143 6.98008 46.503 8.82105 46.503 11.2307C46.503 13.305 44.7646 15.581 41.8618 15.581C39.0769 15.581 37.2373 13.8069 37.2373 11.2471C37.2373 8.61995 39.499 6.98008 41.9803 6.98008ZM51.4479 10.9962C52.8648 10.9962 53.6758 10.4609 53.6758 9.20565C53.6758 8.1515 52.9335 7.61622 51.6503 7.61622C51.4981 7.61622 50.9921 7.64964 50.8234 7.66665V10.9962H51.4479ZM49.372 8.35261C49.372 7.71647 48.9162 7.61622 48.1231 7.61622V7.1812C48.7641 7.1976 49.4224 7.21461 50.064 7.21461C50.8737 7.21461 52.0048 7.1812 52.579 7.1812C53.9789 7.1812 55.1265 7.86776 55.1265 9.20565C55.1265 10.1596 54.4855 10.7951 53.3212 11.1803C55.1265 14.2929 55.5658 14.6939 56.646 14.9449V15.3799C56.3087 15.3607 55.971 15.3497 55.6332 15.3471C55.2621 15.3471 54.9076 15.3635 54.5364 15.3799C53.8776 14.6441 52.8311 12.921 51.9539 11.498C51.7689 11.5176 51.583 11.5288 51.397 11.5314C51.211 11.5314 50.9921 11.515 50.8234 11.498V14.2085C50.8234 14.8951 51.3294 14.9449 52.0723 14.9449V15.3799C51.403 15.3602 50.7335 15.3493 50.064 15.3471C49.4224 15.3471 48.7641 15.3635 48.1231 15.3799V14.9449C48.9162 14.9449 49.372 14.8452 49.372 14.2085V8.35261ZM59.6328 8.35261C59.6328 7.71647 59.177 7.61622 58.3839 7.61622V7.1812C59.0248 7.1976 59.6837 7.21461 60.3246 7.21461C60.9995 7.21461 61.7086 7.1976 62.3331 7.1812V7.61622C61.5399 7.61622 61.0842 7.71647 61.0842 8.35261V14.2085C61.0842 14.8452 61.5399 14.9449 62.3331 14.9449V15.3799C61.6638 15.3602 60.9943 15.3493 60.3246 15.3471C59.6837 15.3471 59.0248 15.3635 58.3839 15.3799V14.9449C59.177 14.9449 59.6328 14.8452 59.6328 14.2085V8.35261ZM71.8179 15.0287C70.6701 15.3799 70.248 15.581 69.0328 15.581C66.0454 15.581 64.3242 13.7406 64.3242 11.2806C64.3242 8.63695 66.3835 6.98008 68.9489 6.98008C70.3321 6.98008 70.6192 7.3817 71.9865 7.43212L72.0877 9.37334H71.6994C71.6994 8.98814 71.1933 7.51597 69.1843 7.51597C67.7165 7.51597 65.8768 8.38603 65.8768 11.046C65.8768 12.9539 67.1258 15.0457 69.1176 15.0457C70.2646 15.0457 71.1596 14.6605 71.7001 13.0711L72.138 13.1215L71.8179 15.0287ZM88.6949 8.98814V5.34022C88.6949 4.16941 88.0533 4.1524 87.1583 4.13599V3.69975C88.0533 3.71676 88.8465 3.73377 89.6561 3.73377C90.3818 3.73377 91.1247 3.69975 91.8841 3.69975V4.13539C90.9897 4.15179 90.3487 4.1682 90.3487 5.33961V13.74C90.3487 14.9108 90.9897 14.9279 91.8841 14.9443V15.3792C91.1248 15.36 90.3654 15.3491 89.6059 15.3464C88.8127 15.3464 88.0361 15.3628 87.1583 15.3792V14.9443C88.0533 14.9279 88.6943 14.9108 88.6943 13.74V9.67349H81.8761V13.74C81.8761 14.9108 82.5171 14.9279 83.4121 14.9443V15.3792C82.6018 15.3792 81.8761 15.3464 81.1332 15.3464C80.3236 15.3464 79.5303 15.3628 78.6857 15.3792V14.9443C79.5807 14.9279 80.2217 14.9108 80.2217 13.74V5.34022C80.2217 4.16941 79.5807 4.1524 78.6863 4.13599V3.69975C79.4794 3.71676 80.256 3.73377 81.0155 3.73377C81.7915 3.73377 82.5675 3.71676 83.4121 3.69975V4.13539C82.5171 4.15179 81.8761 4.1682 81.8761 5.33961V8.98754L88.6949 8.98814ZM97.7908 15.0457C99.9169 15.0457 100.592 13.2047 100.592 11.3978C100.592 9.05558 99.2593 7.51536 97.4699 7.51536C95.4444 7.51536 94.6347 9.27249 94.6347 11.08C94.6347 13.322 96.0185 15.0457 97.7908 15.0457ZM97.7233 6.98008C100.457 6.98008 102.247 8.82105 102.247 11.2307C102.247 13.305 100.508 15.581 97.6049 15.581C94.82 15.581 92.9809 13.8069 92.9809 11.2471C92.9809 8.61995 95.2426 6.98008 97.7233 6.98008ZM106.398 7.71647H105.115C104.085 7.71647 103.883 7.85014 103.596 8.98814H103.158L103.393 6.77958H103.731C103.731 7.09735 104.12 7.1812 104.474 7.1812H109.857C110.246 7.1812 110.448 7.1812 110.752 6.77958H111.089L110.921 8.98814H110.465C110.364 7.91759 110.229 7.71647 109.537 7.71647H107.849V14.2085C107.849 14.8452 108.305 14.9449 109.199 14.9449V15.3799C108.474 15.3635 107.764 15.3471 107.089 15.3471C106.449 15.3471 105.79 15.3635 105.048 15.3799V14.9449C105.942 14.9449 106.398 14.8452 106.398 14.2085L106.398 7.71647ZM119.528 15.3799C118.313 15.3635 117.115 15.3471 115.899 15.3471C114.819 15.3471 113.722 15.3635 112.642 15.3799V14.9449C113.435 14.9449 113.891 14.8452 113.891 14.2085V8.35261C113.891 7.71647 113.435 7.61622 112.642 7.61622V7.1812C113.401 7.1976 114.161 7.21461 114.921 7.21461C116.305 7.21461 117.706 7.1976 119.072 7.1812L119.173 8.95533H118.819C118.616 7.81672 118.329 7.71647 116.591 7.71647H115.342V10.8789H116.743C117.586 10.8789 117.958 10.8625 117.958 9.70751H118.396C118.38 10.1425 118.363 10.5946 118.363 11.0466C118.363 11.498 118.38 11.9665 118.396 12.4355H117.958C117.958 11.515 117.739 11.4148 116.743 11.4148H115.342V13.8573C115.342 14.5772 115.747 14.8452 117.148 14.8452C118.853 14.8452 118.971 14.6271 119.629 13.5225H120.052L119.528 15.3799ZM122.769 8.35261C122.769 7.71647 122.312 7.61622 121.519 7.61622V7.1812C122.16 7.1976 122.819 7.21461 123.46 7.21461C124.135 7.21461 124.844 7.1976 125.469 7.1812V7.61622C124.726 7.61622 124.22 7.66665 124.22 8.35261V13.9241C124.22 14.6271 124.439 14.8452 125.772 14.8452C127.274 14.8452 127.646 14.6107 128.27 13.2546H128.691L128.186 15.3799C127.747 15.3635 125.553 15.3471 125.063 15.3471C123.882 15.3471 122.7 15.3635 121.519 15.3799V14.9449C122.312 14.9449 122.769 14.8452 122.769 14.2085V8.35261ZM129.637 13.3554H130.025C130.363 14.5269 130.886 15.1459 132.118 15.1459C133.417 15.1459 133.721 14.2759 133.721 13.757C133.721 13.0711 133.333 12.636 132.203 12.0503C130.346 11.0965 129.856 10.4609 129.856 9.15583C129.856 8.01784 130.851 6.98069 132.32 6.98069C132.961 6.98069 133.754 7.13076 134.311 7.14777L134.464 8.78764H134.11C133.924 8.11809 133.553 7.41511 132.438 7.41511C131.561 7.41511 130.97 7.98441 130.97 8.75423C130.97 9.55684 131.223 9.8752 132.843 10.662C134.632 11.5314 134.97 12.2344 134.97 13.2886C134.97 14.6271 133.721 15.581 131.983 15.581C131.207 15.581 130.531 15.4303 129.89 15.1295L129.637 13.3554ZM31.5975 25.5131C31.5975 24.8673 31.4723 24.1825 30.5945 24.1825C29.1149 24.1825 28.5377 26.6201 28.5377 27.777C28.5377 28.5595 28.726 29.1938 29.5412 29.1938C31.0582 29.1938 31.5975 26.5953 31.5975 25.5131ZM33.0022 26.1097C33.0022 27.9259 31.6354 29.6666 29.5916 29.6666C28.0489 29.6666 27.1329 28.5103 27.1329 27.2666C27.1329 25.2525 28.7512 23.7104 30.5565 23.7104C32.2127 23.7104 33.0022 24.7791 33.0022 26.1097ZM35.4792 24.5185H34.2621L34.4008 23.8969H35.6417C36.0183 21.4599 37.6353 19.9805 39.1536 19.9805C39.4793 19.9805 39.7179 20.167 39.7179 20.4781C39.7179 20.8633 39.6174 21.2984 39.2536 21.2984C38.8395 21.2984 38.6519 20.9003 38.1004 20.9003C37.5483 20.9003 37.4225 21.6586 37.2973 22.3798L37.0336 23.8969H38.4764L38.3384 24.5185H36.871C36.871 24.5185 36.1828 27.6038 35.9172 28.6313C35.2694 31.1418 33.558 32.3739 32.0588 32.1449C31.736 32.0963 31.5294 31.8758 31.5765 31.5677C31.6361 31.1873 31.8018 30.7718 32.1612 30.827C32.5704 30.8897 32.6949 31.3113 33.2408 31.3946C33.7862 31.4784 34.1242 30.5767 34.2628 30.0542C34.4015 29.5317 35.4792 24.5185 35.4792 24.5185ZM44.9247 24.4098H48.4016L46.5956 19.4908H46.5619L44.9247 24.4098ZM50.6633 26.1498C50.8995 26.8031 51.3553 28.2248 51.6251 28.5923C51.8785 28.9277 52.3845 29.045 52.925 29.045V29.4794C52.2833 29.4794 51.6245 29.4466 50.9835 29.4466C50.1566 29.4466 49.3468 29.463 48.5194 29.4794V29.045H48.8236C49.2457 29.045 49.7517 28.9612 49.7517 28.4921C49.7517 28.3087 49.6168 27.8402 49.4983 27.5218L48.655 25.0957H44.6879L44.3168 26.2672C44.0972 26.9701 43.861 27.7393 43.861 28.2588C43.861 29.045 44.418 29.011 45.0081 29.045H45.3971V29.4794C44.7382 29.4794 44.0635 29.4466 43.4053 29.4466C42.7305 29.4466 42.038 29.463 41.3625 29.4794V29.045C42.3931 28.9277 42.5784 28.7935 43.0004 27.8566C43.2703 27.2544 43.4727 26.6019 43.6923 25.9828L45.8522 20.009C45.9872 19.6244 46.2068 19.0054 46.2068 18.5023C46.2068 18.3357 46.2068 18.2021 46.173 18.0678C46.5276 17.9008 46.9153 17.7167 47.152 17.3314H47.4391L50.6633 26.1498ZM62.8146 21.2807C63.2081 21.3004 63.6021 21.3115 63.996 21.3141C64.434 21.3141 64.9408 21.2977 65.3627 21.2807V21.7158C64.5531 21.7158 64.1979 21.8664 64.1979 22.2517C64.1979 22.5189 64.2151 22.7535 64.2316 23.1886L64.4003 27.5388C64.4512 28.9605 64.688 29.045 65.7511 29.045V29.4794C65.0872 29.4603 64.4233 29.4494 63.7593 29.4466C63.1177 29.4466 62.3926 29.463 61.7509 29.4794V29.045C62.6452 29.045 62.9655 28.9448 62.9655 28.2084C62.9655 26.9531 62.8477 25.0453 62.7802 22.6866H62.7465L59.5567 29.5802H59.3205L56.1141 22.9376H56.0804C55.962 24.5598 55.7596 27.5892 55.7596 28.1082C55.7596 28.7771 56.1982 29.045 57.0589 29.045V29.4794C56.5699 29.4794 56.0633 29.4466 55.5743 29.4466C55.0174 29.4466 54.3923 29.463 53.8359 29.4794V29.045C54.9665 29.045 55.1013 28.6598 55.1517 27.9241L55.4725 23.5737C55.5234 22.9206 55.5399 22.6028 55.5399 22.1842C55.5399 21.7661 55.2701 21.7164 54.291 21.7164V21.2807C54.7805 21.2807 55.2867 21.3141 55.7762 21.3141C56.1135 21.3141 56.5184 21.2807 56.8398 21.2807L59.8947 27.4385L62.8146 21.2807ZM74.2059 29.4794C72.9907 29.463 71.7927 29.4466 70.5775 29.4466C69.4973 29.4466 68.3999 29.463 67.3202 29.4794V29.045C68.1133 29.045 68.5692 28.9448 68.5692 28.3087V22.4522C68.5692 21.816 68.1133 21.7158 67.3202 21.7158V21.2807C68.0796 21.2977 68.839 21.3141 69.5984 21.3141C70.9824 21.3141 72.3834 21.2977 73.7501 21.2807L73.8513 23.0543H73.4967C73.2943 21.9169 73.0072 21.816 71.2694 21.816H70.0205V24.9785H71.421C72.265 24.9785 72.6362 24.9621 72.6362 23.807H73.0747C73.0581 24.2421 73.041 24.6942 73.041 25.1462C73.041 25.5976 73.0581 26.0667 73.0747 26.5351H72.6362C72.6362 25.6146 72.4171 25.5144 71.4215 25.5144H70.0205V27.9569C70.0205 28.6769 70.4254 28.9448 71.8264 28.9448C73.5311 28.9448 73.6482 28.7261 74.307 27.6221H74.7291L74.2059 29.4794ZM79.4205 25.0957C80.8382 25.0957 81.6485 24.5604 81.6485 23.3052C81.6485 22.2517 80.9057 21.7158 79.623 21.7158C79.4714 21.7158 78.9648 21.7492 78.7961 21.7661V25.0957H79.4205ZM77.3448 22.4527C77.3448 21.816 76.889 21.7158 76.0958 21.7158V21.2807C76.7374 21.2977 77.3957 21.3141 78.0367 21.3141C78.847 21.3141 79.9776 21.2807 80.5518 21.2807C81.9522 21.2807 83.0998 21.9673 83.0998 23.3052C83.0998 24.2591 82.4582 24.8952 81.294 25.2798C83.0998 28.3925 83.5391 28.7935 84.6188 29.045V29.4794C84.2817 29.4603 83.9442 29.4494 83.6066 29.4466C83.2348 29.4466 82.8803 29.463 82.5086 29.4794C81.8509 28.7443 80.8044 27.02 79.9272 25.5976C79.7422 25.6174 79.5564 25.6288 79.3703 25.6316C79.1844 25.6316 78.9654 25.6146 78.7961 25.5976V28.3087C78.7961 28.9946 79.3022 29.045 80.045 29.045V29.4794C79.3757 29.4598 78.7062 29.4489 78.0367 29.4466C77.3957 29.4466 76.7374 29.463 76.0958 29.4794V29.045C76.889 29.045 77.3448 28.9448 77.3448 28.3087V22.4527ZM87.2681 22.4522C87.2681 21.816 86.8129 21.7158 86.0192 21.7158V21.2807C86.6602 21.2977 87.319 21.3141 87.9601 21.3141C88.6354 21.3141 89.3439 21.2977 89.969 21.2807V21.7158C89.1753 21.7158 88.72 21.816 88.72 22.4522V28.3087C88.72 28.9448 89.1753 29.045 89.969 29.045V29.4794C89.2996 29.4598 88.6298 29.4489 87.9601 29.4466C87.319 29.4466 86.6602 29.463 86.0192 29.4794V29.045C86.8129 29.045 87.2681 28.9448 87.2681 28.3087V22.4522ZM98.9471 29.1282C97.7994 29.4794 97.3773 29.6805 96.1621 29.6805C93.1747 29.6805 91.4535 27.8402 91.4535 25.3801C91.4535 22.7371 93.5122 21.0802 96.0781 21.0802C97.4619 21.0802 97.749 21.4812 99.1152 21.5317L99.217 23.4729H98.8287C98.8287 23.0876 98.3226 21.6149 96.3136 21.6149C94.8457 21.6149 93.0061 22.4856 93.0061 25.1462C93.0061 27.0539 94.255 29.1446 96.2467 29.1446C97.3939 29.1446 98.2889 28.7607 98.8287 27.1706L99.2679 27.221L98.9471 29.1282ZM104.499 22.4856H104.465L103.234 25.8655H105.714L104.499 22.4856ZM105.613 29.045H105.816C106.238 29.045 106.659 28.9277 106.659 28.6428C106.659 28.4423 106.609 28.3087 106.524 28.0911L105.9 26.4008H103.031L102.659 27.4884C102.592 27.7065 102.372 28.2752 102.372 28.5759C102.372 28.9776 102.929 29.045 103.25 29.045H103.453V29.4794C102.879 29.463 102.306 29.4466 101.731 29.4466C101.292 29.4466 100.803 29.463 100.348 29.4794V29.045C101.208 29.045 101.461 28.6933 101.596 28.342L104.01 22.2346C104.094 22.0335 104.178 21.8336 104.178 21.6817C104.178 21.5984 104.162 21.5317 104.145 21.4478L105.444 20.963L107.976 28.0577C108.246 28.8275 108.499 29.045 109.393 29.045V29.4794C108.752 29.463 108.128 29.4466 107.504 29.4466C106.879 29.4466 106.238 29.463 105.613 29.4794V29.045ZM0 34.879H135.395V34.5023H0V34.879ZM0 0.469843H135.395V0.09375H0V0.469843ZM0 45.5682H135.395V45.1915H0V45.5682ZM11.1048 37.7L10.7545 37.7742C10.6871 37.7869 10.6337 37.8537 10.6337 38.0008V41.8577C10.6337 41.9045 10.6067 41.9105 10.5724 41.9105H10.1356C10.0816 41.9105 10.0681 41.8978 10.0344 41.851L8.19718 39.1084C8.09597 38.9614 7.93464 38.7013 7.89415 38.6284H7.88065V41.2106C7.88065 41.357 7.93464 41.4233 8.00211 41.4372L8.42599 41.5041C8.49347 41.5174 8.52045 41.5637 8.52045 41.6171V41.7569C8.52045 41.8236 8.47997 41.8577 8.41924 41.8577H6.75011C6.69 41.8577 6.64889 41.8243 6.64889 41.7574V41.6177C6.64889 41.5637 6.67589 41.5174 6.74337 41.5041L7.09302 41.4372C7.16049 41.4239 7.21448 41.357 7.21448 41.21V38.0008C7.21448 37.8537 7.16049 37.7869 7.09302 37.7742L6.73661 37.7006C6.66914 37.6873 6.64215 37.6399 6.64215 37.587V37.4534C6.64215 37.3865 6.68264 37.3537 6.74337 37.3537H7.98861C8.07633 37.3537 8.10946 37.4065 8.15669 37.48L9.59027 39.6819C9.73135 39.8958 9.88654 40.1498 9.95402 40.3029H9.96752V38.0002C9.96752 37.8544 9.91354 37.7875 9.84607 37.7742L9.42219 37.7006C9.35471 37.6873 9.32773 37.6399 9.32773 37.587V37.4534C9.32773 37.3865 9.3682 37.3537 9.42893 37.3537H11.0975C11.1588 37.3537 11.1987 37.3865 11.1987 37.4534V37.587C11.1987 37.6404 11.1717 37.6867 11.1048 37.7ZM13.5346 40.2427C13.5346 40.1959 13.5143 40.1826 13.4671 40.1826C12.6329 40.1826 12.3366 40.4894 12.3366 40.863C12.3366 41.1772 12.5789 41.3838 12.9082 41.3838C13.312 41.3838 13.534 41.0903 13.534 40.8163L13.5346 40.2427ZM14.7124 41.8309C14.5234 41.8938 14.3259 41.9276 14.1265 41.9312C13.7769 41.9312 13.6358 41.7106 13.615 41.4634H13.5886C13.3395 41.7173 13.0427 41.9312 12.5452 41.9312C11.9734 41.9312 11.5826 41.5241 11.5826 40.9901C11.5826 40.103 12.4169 39.7287 13.4671 39.7354C13.5211 39.7354 13.5346 39.6753 13.5346 39.6425V39.4887C13.5346 39.0616 13.2045 38.8751 12.7942 38.8751C12.5326 38.8758 12.2756 38.9423 12.047 39.0683C11.9795 39.1084 11.9194 39.0884 11.8992 39.0082L11.8249 38.6679C11.8115 38.6077 11.8249 38.5543 11.8857 38.5343C12.182 38.4145 12.585 38.3338 12.9959 38.3338C13.837 38.3338 14.2744 38.7213 14.2744 39.5756V41.1966C14.2744 41.3236 14.3486 41.4038 14.4633 41.4038C14.5308 41.4038 14.5707 41.3905 14.6314 41.3704C14.6854 41.357 14.7326 41.3838 14.7394 41.4507L14.7724 41.7173C14.7793 41.7842 14.7528 41.8176 14.7124 41.8309ZM17.2028 41.7647C17.0207 41.851 16.6912 41.9312 16.4017 41.9312C15.7692 41.9312 15.3589 41.5302 15.3589 40.9031V39.0488C15.3589 39.002 15.3178 38.9686 15.2846 38.9686H14.8406C14.8001 38.9686 14.7866 38.9353 14.7927 38.8824L14.8338 38.5549C14.8338 38.5281 14.8534 38.4953 14.8804 38.4953H15.3043C15.3656 38.4953 15.3853 38.4552 15.3853 38.4018V37.9546C15.3853 37.8817 15.3988 37.8276 15.4731 37.8008L16.0116 37.6076C16.092 37.581 16.119 37.6076 16.119 37.6878V38.4218C16.119 38.4619 16.1527 38.4947 16.1926 38.4947H17.041C17.068 38.4947 17.0948 38.5215 17.0948 38.5482V38.9152C17.0948 38.9353 17.068 38.9686 17.041 38.9686H16.2067C16.1594 38.9686 16.119 39.002 16.119 39.0488V40.7307C16.119 41.0909 16.3005 41.3577 16.6772 41.3577C16.8188 41.3577 16.9532 41.3176 17.0881 41.2708C17.1421 41.2507 17.1955 41.2775 17.209 41.3442L17.263 41.6377C17.2691 41.6627 17.2665 41.6889 17.2556 41.712C17.2446 41.7352 17.2261 41.7535 17.2028 41.7647ZM18.293 37.8336C17.9494 37.8336 17.8218 37.6138 17.8218 37.3932C17.8218 37.1933 17.9494 36.9533 18.3064 36.9533C18.6297 36.9533 18.7843 37.1264 18.7843 37.3865C18.7843 37.6672 18.5954 37.8336 18.293 37.8336ZM19.2824 41.8243C19.1615 41.8777 18.9327 41.9379 18.7303 41.9379C18.1518 41.9379 17.9162 41.6304 17.9162 41.1298V39.1017C17.9162 39.0082 17.8825 38.8952 17.7752 38.8751L17.4991 38.8216C17.4317 38.8082 17.4114 38.7749 17.4114 38.728V38.5944C17.4114 38.5343 17.4451 38.5008 17.5053 38.4947L18.569 38.3744C18.623 38.3677 18.683 38.4078 18.683 38.4613V41.0502C18.683 41.2768 18.7775 41.4105 18.9793 41.4105C19.0558 41.41 19.1313 41.394 19.2014 41.3637C19.2351 41.3504 19.3094 41.3637 19.3161 41.4573L19.3431 41.7106C19.3467 41.7336 19.3427 41.7571 19.3317 41.7776C19.3205 41.7981 19.3037 41.8145 19.2824 41.8243ZM21.2815 38.7749C20.635 38.7749 20.4534 39.3824 20.4534 40.0756C20.4534 40.9505 20.7901 41.4974 21.2876 41.4974C21.9274 41.4974 22.136 40.9232 22.136 40.2026C22.136 39.335 21.7998 38.7749 21.2815 38.7749ZM21.2613 41.9647C20.1976 41.9647 19.6191 41.1906 19.6191 40.1893C19.6191 39.1819 20.2718 38.3143 21.3282 38.3143C22.385 38.3143 22.9709 39.0816 22.9709 40.0763C22.9709 41.0903 22.3176 41.9647 21.2613 41.9647ZM27.2913 41.8577H25.7031C25.6424 41.8577 25.6092 41.8243 25.6092 41.7642V41.6371C25.6092 41.5903 25.6355 41.5502 25.6969 41.5375L25.9994 41.4767C26.0601 41.464 26.114 41.4038 26.114 41.2702V39.6625C26.114 39.1686 25.8313 38.9079 25.4006 38.9079C24.9836 38.9079 24.6535 39.1618 24.6535 39.5422V41.2702C24.6535 41.4038 24.7069 41.464 24.7676 41.4767L25.0706 41.5375C25.1313 41.5502 25.1583 41.5903 25.1583 41.6371V41.7647C25.1583 41.8243 25.1246 41.8577 25.0639 41.8577H23.4751C23.415 41.8577 23.3813 41.8243 23.3813 41.7642V41.6371C23.3813 41.5903 23.4083 41.5502 23.4684 41.5375L23.7714 41.4767C23.8327 41.464 23.8862 41.4038 23.8862 41.2702V39.1011C23.8862 39.0082 23.8523 38.8945 23.745 38.8751L23.415 38.8216C23.3475 38.8082 23.3273 38.7681 23.3273 38.7213V38.5944C23.3273 38.5343 23.361 38.5008 23.4217 38.4947L24.4174 38.3744C24.4915 38.3677 24.5253 38.4078 24.5321 38.4747L24.5725 38.8416H24.5995C24.8958 38.5476 25.2866 38.341 25.7711 38.341C26.3632 38.341 26.8815 38.6947 26.8815 39.3751V41.2708C26.8815 41.4038 26.9348 41.464 26.9955 41.4773L27.2986 41.5375C27.3587 41.5502 27.3857 41.5903 27.3857 41.6371V41.7647C27.3857 41.8243 27.3513 41.8577 27.2913 41.8577ZM29.7143 40.2427C29.7143 40.1959 29.6946 40.1826 29.6467 40.1826C28.8125 40.1826 28.5168 40.4894 28.5168 40.863C28.5168 41.1772 28.7592 41.3838 29.0885 41.3838C29.4928 41.3838 29.7143 41.0903 29.7143 40.8163V40.2427ZM30.892 41.8309C30.7032 41.8938 30.5059 41.9276 30.3068 41.9312C29.9572 41.9312 29.8161 41.7106 29.7953 41.4634H29.7683C29.5191 41.7173 29.2235 41.9312 28.7254 41.9312C28.1531 41.9312 27.7623 41.5241 27.7623 40.9901C27.7623 40.103 28.5972 39.7287 29.6474 39.7354C29.7014 39.7354 29.7148 39.6753 29.7148 39.6425V39.4887C29.7148 39.0616 29.3848 38.8751 28.9745 38.8751C28.7129 38.8758 28.4559 38.9423 28.2273 39.0683C28.1598 39.1084 28.0991 39.0884 28.0788 39.0082L28.0052 38.6679C27.9918 38.6077 28.0052 38.5543 28.0654 38.5343C28.3617 38.4145 28.7659 38.3338 29.1756 38.3338C30.0179 38.3338 30.4552 38.7213 30.4552 39.5756V41.1966C30.4552 41.3236 30.5289 41.4038 30.6435 41.4038C30.7111 41.4038 30.751 41.3905 30.8117 41.3704C30.8657 41.357 30.9123 41.3838 30.919 41.4507L30.9527 41.7173C30.9595 41.7842 30.9319 41.8176 30.892 41.8309ZM32.9715 41.8309C32.7929 41.8967 32.6039 41.9305 32.4133 41.9312C31.8348 41.9312 31.5993 41.6171 31.5993 41.1171V37.6404C31.5993 37.5469 31.5656 37.4339 31.4582 37.4133L31.1821 37.3604C31.1147 37.3464 31.0944 37.3136 31.0944 37.2668V37.1331C31.0944 37.073 31.1282 37.0396 31.1889 37.0329L32.252 36.9132C32.306 36.9065 32.3667 36.9466 32.3667 36.9995V41.0369C32.3667 41.2635 32.4606 41.3905 32.6623 41.3905C32.7568 41.3905 32.8243 41.3704 32.8912 41.3504C32.9452 41.337 32.9924 41.3637 32.9991 41.4306L33.0329 41.7173C33.039 41.7842 33.0126 41.8109 32.9715 41.8309ZM38.4844 38.4947H38.2961C38.2703 38.4946 38.2456 38.4849 38.2269 38.4676C38.2081 38.4503 38.1966 38.4265 38.1948 38.4012L38.1341 38.0341C38.1138 37.9206 38.02 37.8604 37.8985 37.8604H37.2459C37.2351 37.86 37.2244 37.8618 37.2144 37.8657C37.2044 37.8695 37.1953 37.8754 37.1876 37.883C37.18 37.8905 37.1741 37.8995 37.1702 37.9094C37.1662 37.9193 37.1644 37.93 37.1649 37.9406V41.21C37.1649 41.357 37.2189 41.4239 37.2863 41.4372L37.6428 41.5041C37.7102 41.5174 37.7372 41.5637 37.7372 41.6171V41.7569C37.7372 41.8236 37.6968 41.8577 37.6366 41.8577H35.8325C35.7718 41.8577 35.7319 41.8243 35.7319 41.7574V41.6177C35.7319 41.5637 35.7583 41.5174 35.8258 41.5041L36.1828 41.4372C36.2503 41.4239 36.3036 41.357 36.3036 41.21V37.9406C36.3041 37.93 36.3022 37.9193 36.2984 37.9094C36.2945 37.8995 36.2885 37.8905 36.2809 37.883C36.2733 37.8754 36.2642 37.8695 36.2542 37.8657C36.2441 37.8618 36.2334 37.86 36.2227 37.8604H35.57C35.4492 37.8604 35.3546 37.9206 35.3345 38.0341L35.2738 38.4012C35.2718 38.4264 35.2604 38.4501 35.2419 38.4674C35.2232 38.4847 35.1987 38.4945 35.173 38.4947H34.9847C34.924 38.4947 34.8903 38.4613 34.8903 38.4012V37.4734C34.8903 37.4005 34.924 37.3537 34.9713 37.3537H38.4979C38.5451 37.3537 38.5788 37.3998 38.5788 37.4734V38.4012C38.5788 38.4613 38.5451 38.4947 38.4844 38.4947ZM41.1632 39.0683C41.1497 39.115 41.0957 39.1619 41.0283 39.1351C40.8875 39.0862 40.7399 39.0591 40.5908 39.0549C40.2811 39.0549 39.9652 39.2554 39.9652 39.6151V41.2702C39.9652 41.4038 40.0192 41.4707 40.0793 41.4767L40.4835 41.5375C40.5509 41.5436 40.5707 41.5903 40.5707 41.6371V41.7647C40.5707 41.8243 40.5369 41.8577 40.4768 41.8577H38.7868C38.726 41.8577 38.6923 41.8243 38.6923 41.7642V41.6371C38.6923 41.5903 38.7193 41.5502 38.78 41.5375L39.0825 41.4767C39.1438 41.464 39.1972 41.4038 39.1972 41.2702V39.1084C39.1972 39.0148 39.1634 38.9018 39.0561 38.8817L38.7193 38.8283C38.6519 38.815 38.6316 38.7749 38.6316 38.728V38.5944C38.6316 38.5343 38.6653 38.5008 38.726 38.4947L39.7156 38.3744C39.7959 38.3677 39.8296 38.4145 39.837 38.4947C39.837 38.4947 39.8769 38.8817 39.8836 38.9346H39.9106C40.1866 38.5944 40.4761 38.341 40.9 38.341C41.0142 38.341 41.1423 38.3611 41.2368 38.4012C41.2835 38.4212 41.2969 38.4741 41.2835 38.5348L41.1632 39.0683ZM45.3626 41.8309C45.1763 41.8938 44.9811 41.9276 44.7843 41.9312C44.4407 41.9312 44.2382 41.7574 44.2321 41.4372H44.2119C43.9297 41.7241 43.5457 41.9312 43.0814 41.9312C42.509 41.9312 41.9981 41.5637 41.9981 40.8898V39.1017C41.9981 39.0082 41.9644 38.8952 41.8569 38.8751L41.5803 38.8283C41.5128 38.815 41.4926 38.7749 41.4926 38.728V38.5944C41.4926 38.5343 41.5269 38.5008 41.5871 38.4947L42.644 38.3744C42.698 38.3677 42.7581 38.4078 42.7581 38.4613V40.6031C42.7581 41.097 43.0409 41.357 43.4513 41.357C43.8555 41.357 44.1714 41.1036 44.1714 40.7234V39.1011C44.1714 39.0082 44.1376 38.8945 44.0303 38.8751L43.7543 38.8283C43.6869 38.815 43.6666 38.7749 43.6666 38.728V38.5944C43.6666 38.5343 43.7003 38.5008 43.761 38.4947L44.8247 38.3744C44.878 38.3677 44.9389 38.4078 44.9389 38.4613V41.1906C44.9389 41.3169 44.9996 41.4038 45.1136 41.4038C45.1811 41.4038 45.2283 41.3905 45.2891 41.3704C45.3425 41.357 45.3829 41.3838 45.3896 41.4507L45.4234 41.7173C45.4295 41.7842 45.4032 41.8176 45.3626 41.8309ZM46.884 41.9312C46.5472 41.9312 46.157 41.8644 46.0024 41.8109C45.9485 41.7908 45.9013 41.7507 45.9013 41.6906V40.9633C45.9013 40.9031 45.9283 40.8698 45.9957 40.8698H46.184C46.238 40.8698 46.2717 40.9031 46.2853 40.9633L46.3453 41.1966C46.3926 41.3705 46.5945 41.464 46.8975 41.464C47.241 41.464 47.5366 41.2768 47.5366 40.9633C47.5366 40.6899 47.3281 40.5502 47.046 40.436L46.6349 40.2695C46.2313 40.1024 45.9215 39.8624 45.9215 39.3751C45.9215 38.6879 46.5876 38.3343 47.2073 38.3343C47.5366 38.3343 47.8195 38.3878 47.9875 38.4473C48.0415 38.468 48.082 38.5008 48.082 38.5676V39.2287C48.082 39.2882 48.0482 39.3283 47.9808 39.3283H47.8262C47.7789 39.3283 47.7459 39.3016 47.7249 39.2353L47.6716 39.0288C47.6312 38.8678 47.463 38.7882 47.2005 38.7882C46.9305 38.7882 46.6484 38.9218 46.6484 39.1886C46.6484 39.4353 46.8508 39.5422 47.106 39.6491L47.4962 39.8089C47.9004 39.9754 48.2771 40.2294 48.2771 40.7628C48.2771 41.5241 47.563 41.9312 46.884 41.9312ZM51.0166 41.7647C50.835 41.851 50.5051 41.9312 50.2155 41.9312C49.583 41.9312 49.1726 41.5302 49.1726 40.9031V39.0488C49.1726 39.002 49.1322 38.9686 49.0985 38.9686H48.6543C48.6139 38.9686 48.6003 38.9353 48.607 38.8824L48.6476 38.5549C48.6476 38.5281 48.6679 38.4953 48.6942 38.4953H49.1186C49.1788 38.4953 49.1991 38.4552 49.1991 38.4018V37.9546C49.1991 37.8817 49.2125 37.8276 49.2868 37.8008L49.8253 37.6076C49.9057 37.581 49.9327 37.6076 49.9327 37.6878V38.4218C49.9327 38.4619 49.9664 38.4947 50.0069 38.4947H50.8547C50.8817 38.4947 50.9087 38.5215 50.9087 38.5482V38.9152C50.9087 38.9353 50.8817 38.9686 50.8547 38.9686H50.0204C49.9732 38.9686 49.9327 39.002 49.9327 39.0488V40.7307C49.9327 41.0909 50.1149 41.3577 50.4909 41.3577C50.6325 41.3577 50.767 41.3176 50.9019 41.2708C50.9559 41.2507 51.0099 41.2775 51.0234 41.3442L51.0767 41.6377C51.0829 41.6627 51.0803 41.6889 51.0693 41.712C51.0584 41.7352 51.0398 41.7535 51.0166 41.7647ZM53.9242 38.8544C54.1531 38.2796 54.1451 37.8713 54.7561 37.1982C54.9389 36.994 55.4805 36.6538 55.9615 36.6538C56.6178 36.6538 56.8539 36.9332 56.8539 37.206C56.8506 37.3065 56.8083 37.4019 56.736 37.4722C56.6636 37.5426 56.5665 37.5827 56.465 37.5839C56.1442 37.5839 56.0295 37.4253 55.9841 37.1829C55.9687 37.1076 55.9154 36.9642 55.74 36.9642C55.2369 36.9642 55.0303 38.0458 54.8321 38.8544H55.6332C55.6786 38.8544 55.6945 38.8775 55.6866 38.9225L55.6486 39.1121C55.6407 39.1649 55.6258 39.1874 55.5645 39.1874H54.7707C54.6033 39.8071 54.3058 41.1013 54.0309 41.8954C53.6568 42.9769 52.9556 44.1039 52.0171 44.1039C51.5595 44.1039 51.3074 43.8997 51.3074 43.6117C51.3074 43.4003 51.4448 43.2114 51.6815 43.2114C51.9257 43.2114 52.0558 43.393 52.0779 43.6349C52.0858 43.7109 52.1392 43.7637 52.2459 43.7637C52.6201 43.7637 52.925 43.1281 53.2458 41.7666L53.8555 39.1874H53.2145C53.1765 39.1874 53.1532 39.157 53.1611 39.1194L53.2072 38.9152C53.2145 38.8775 53.2298 38.8544 53.2911 38.8544H53.9242ZM57.1281 40.7458C57.3643 40.3071 57.5932 39.6644 57.5932 39.3842C57.5932 39.2025 57.5171 39.0592 57.311 39.0592C57.0214 39.0592 56.7999 39.3235 56.4564 39.9365C56.1976 40.3898 56.0755 40.8515 56.0755 41.1614C56.0755 41.3133 56.167 41.4944 56.3423 41.4944C56.5712 41.4944 56.8159 41.3358 57.1281 40.7458ZM55.4419 40.7762C55.4419 40.1631 55.6173 39.5277 56.0448 39.0665C56.3577 38.7414 56.7239 38.6278 57.1355 38.6278C57.5477 38.6278 58.2114 38.8168 58.2114 39.7397C58.2114 40.1857 58.0513 40.9877 57.5704 41.4944C57.2729 41.8121 56.9374 41.933 56.449 41.933C56.0068 41.933 55.4419 41.6311 55.4419 40.7762ZM58.7145 41.8577C58.661 41.8577 58.6304 41.8273 58.6458 41.7897L59.0119 40.5641C59.1415 40.1407 59.3782 39.3915 59.3782 39.2481C59.3782 39.1722 59.3248 39.1041 59.2488 39.1041C59.1261 39.1041 58.8519 39.3538 58.7451 39.5204C58.7145 39.5653 58.6838 39.5732 58.6531 39.5507L58.5771 39.4978C58.5543 39.4827 58.5543 39.4595 58.5771 39.4067C58.6998 39.1879 59.1341 38.6278 59.7978 38.6278C60.0953 38.6278 60.1947 38.7864 60.1947 38.9304C60.1947 39.0665 60.0493 39.4371 59.8665 39.9287L59.9505 39.9742C60.1407 39.558 60.5989 38.6278 61.1559 38.6278C61.3767 38.6278 61.5908 38.7942 61.5908 39.0361C61.5908 39.301 61.3847 39.5282 61.2473 39.5282C61.1485 39.5282 61.0645 39.5131 60.9958 39.4675C60.9345 39.4292 60.881 39.3764 60.7817 39.3764C60.5455 39.3764 60.1333 39.9742 59.9658 40.36C59.8891 40.5411 59.8057 40.761 59.7144 41.0405L59.4696 41.8048C59.4543 41.8425 59.4162 41.8577 59.3702 41.8577H58.7145ZM67.541 41.8577H65.7437C65.6829 41.8577 65.6431 41.8243 65.6431 41.7574V41.6177C65.6431 41.5637 65.6695 41.5174 65.7369 41.5041L66.0866 41.4372C66.154 41.4239 66.208 41.357 66.208 41.21V39.8157C66.2085 39.8049 66.2066 39.7943 66.2028 39.7844C66.1988 39.7745 66.1929 39.7655 66.1853 39.758C66.1777 39.7504 66.1686 39.7446 66.1586 39.7407C66.1485 39.7368 66.1378 39.735 66.1271 39.7354H64.5659C64.5551 39.735 64.5444 39.7368 64.5344 39.7407C64.5244 39.7446 64.5153 39.7504 64.5077 39.758C64.5001 39.7655 64.4942 39.7745 64.4902 39.7844C64.4863 39.7943 64.4845 39.8049 64.4849 39.8157V41.21C64.4849 41.357 64.5389 41.4239 64.6064 41.4372L64.9629 41.5041C65.0303 41.5174 65.0573 41.5637 65.0573 41.6171V41.7569C65.0573 41.8236 65.0167 41.8577 64.956 41.8577H63.1526C63.0918 41.8577 63.0514 41.8243 63.0514 41.7574V41.6177C63.0514 41.5637 63.0784 41.5174 63.1458 41.5041L63.5028 41.4372C63.5703 41.4239 63.6237 41.357 63.6237 41.21V38.0008C63.6237 37.8537 63.5697 37.7869 63.5028 37.7742L63.1458 37.7006C63.0784 37.6873 63.0514 37.6399 63.0514 37.587V37.4534C63.0514 37.3865 63.0918 37.3537 63.1526 37.3537H64.956C65.0174 37.3537 65.0573 37.3865 65.0573 37.4534V37.587C65.0573 37.6404 65.0303 37.6873 64.9629 37.7006L64.6064 37.7735C64.5389 37.7869 64.4849 37.8537 64.4849 38.0008V39.1351C64.4849 39.1819 64.5187 39.2147 64.5659 39.2147H66.1271C66.1377 39.2152 66.1484 39.2133 66.1585 39.2096C66.1684 39.2057 66.1775 39.1999 66.185 39.1924C66.1926 39.185 66.1987 39.176 66.2025 39.1662C66.2065 39.1563 66.2084 39.1457 66.208 39.1351V38.0008C66.208 37.8537 66.154 37.7869 66.0873 37.7742L65.7369 37.7006C65.6695 37.6873 65.6431 37.6399 65.6431 37.587V37.4534C65.6431 37.3865 65.6829 37.3537 65.7437 37.3537H67.541C67.6012 37.3537 67.6416 37.3865 67.6416 37.4534V37.587C67.6416 37.6404 67.6146 37.6873 67.5472 37.7006L67.1975 37.7735C67.13 37.7869 67.0761 37.8537 67.0761 38.0008V41.21C67.0761 41.357 67.13 41.4239 67.1975 41.4372L67.5472 41.5041C67.6146 41.5174 67.6416 41.5637 67.6416 41.6171V41.7569C67.6416 41.8236 67.6012 41.8577 67.541 41.8577ZM68.82 37.8336C68.4765 37.8336 68.3483 37.6138 68.3483 37.3932C68.3483 37.1933 68.4765 36.9533 68.8329 36.9533C69.1562 36.9533 69.3113 37.1264 69.3113 37.3865C69.3113 37.6672 69.123 37.8336 68.82 37.8336ZM69.8088 41.8243C69.688 41.8777 69.4592 41.9379 69.2568 41.9379C68.6783 41.9379 68.4427 41.6304 68.4427 41.1298V39.1017C68.4427 39.0082 68.409 38.8952 68.3017 38.8751L68.0256 38.8216C67.9582 38.8082 67.9379 38.7749 67.9379 38.728V38.5944C67.9379 38.5343 67.9716 38.5008 68.0324 38.4947L69.0955 38.3744C69.1495 38.3677 69.2102 38.4078 69.2102 38.4613V41.0502C69.2102 41.2768 69.3039 41.4105 69.5058 41.4105C69.5823 41.41 69.6578 41.394 69.7279 41.3637C69.7623 41.3504 69.8358 41.3637 69.8426 41.4573L69.8696 41.7106C69.8731 41.7335 69.8692 41.757 69.8583 41.7775C69.8472 41.7979 69.8299 41.8144 69.8088 41.8243ZM71.2492 41.9312C70.913 41.9312 70.5222 41.8644 70.3676 41.8109C70.3136 41.7908 70.2665 41.7507 70.2665 41.6906V40.9633C70.2665 40.9031 70.2935 40.8698 70.3609 40.8698H70.5492C70.6032 40.8698 70.6369 40.9031 70.6505 40.9633L70.7105 41.1966C70.7578 41.3705 70.9596 41.464 71.2626 41.464C71.6062 41.464 71.9018 41.2768 71.9018 40.9633C71.9018 40.6899 71.6933 40.5502 71.4112 40.436L71.0001 40.2695C70.5965 40.1024 70.2867 39.8624 70.2867 39.3751C70.2867 38.6879 70.9528 38.3343 71.5725 38.3343C71.9018 38.3343 72.1847 38.3878 72.3527 38.4473C72.4067 38.468 72.4472 38.5008 72.4472 38.5676V39.2287C72.4472 39.2882 72.4134 39.3283 72.346 39.3283H72.1914C72.1441 39.3283 72.1104 39.3016 72.0908 39.2353L72.0368 39.0288C71.9964 38.8678 71.8282 38.7882 71.5656 38.7882C71.2957 38.7882 71.0136 38.9218 71.0136 39.1886C71.0136 39.4353 71.216 39.5422 71.4712 39.6491L71.8619 39.8089C72.2656 39.9754 72.6422 40.2294 72.6422 40.7628C72.6422 41.5241 71.9288 41.9312 71.2492 41.9312ZM75.3818 41.7647C75.1996 41.851 74.8701 41.9312 74.5807 41.9312C73.9482 41.9312 73.5378 41.5302 73.5378 40.9031V39.0488C73.5378 39.002 73.4974 38.9686 73.4637 38.9686H73.0195C72.979 38.9686 72.9655 38.9353 72.9722 38.8824L73.0128 38.5549C73.0128 38.5281 73.0329 38.4953 73.0599 38.4953H73.4833C73.5446 38.4953 73.5643 38.4552 73.5643 38.4018V37.9546C73.5643 37.8817 73.5783 37.8276 73.652 37.8008L74.1905 37.6076C74.2715 37.581 74.2979 37.6076 74.2979 37.6878V38.4218C74.2979 38.4619 74.3316 38.4947 74.3721 38.4947H75.2205C75.2469 38.4947 75.2738 38.5215 75.2738 38.5482V38.9152C75.2738 38.9353 75.2469 38.9686 75.2205 38.9686H74.3862C74.3384 38.9686 74.2979 39.002 74.2979 39.0488V40.7307C74.2979 41.0909 74.4801 41.3577 74.8567 41.3577C74.9977 41.3577 75.1327 41.3176 75.2677 41.2708C75.3211 41.2507 75.375 41.2775 75.3885 41.3442L75.4425 41.6377C75.4486 41.6627 75.4459 41.689 75.4349 41.7122C75.4238 41.7353 75.4051 41.7536 75.3818 41.7647ZM77.3939 38.7749C76.7479 38.7749 76.5658 39.3824 76.5658 40.0756C76.5658 40.9505 76.9031 41.4974 77.4006 41.4974C78.0398 41.4974 78.2489 40.9232 78.2489 40.2026C78.2489 39.335 77.9122 38.7749 77.3939 38.7749ZM77.3736 41.9647C76.3106 41.9647 75.7314 41.1906 75.7314 40.1893C75.7314 39.1819 76.3847 38.3143 77.441 38.3143C78.498 38.3143 79.0832 39.0816 79.0832 40.0763C79.0832 41.0903 78.4305 41.9647 77.3736 41.9647ZM81.9712 39.0683C81.9571 39.115 81.9037 39.1619 81.8362 39.1351C81.6955 39.0862 81.548 39.0591 81.3989 39.0549C81.0891 39.0549 80.7732 39.2554 80.7732 39.6151V41.2702C80.7732 41.4038 80.8265 41.4707 80.8873 41.4767L81.2909 41.5375C81.3584 41.5436 81.3786 41.5903 81.3786 41.6371V41.7647C81.3786 41.8243 81.3449 41.8577 81.2842 41.8577H79.5954C79.5341 41.8577 79.5009 41.8243 79.5009 41.7642V41.6371C79.5009 41.5903 79.5279 41.5502 79.5887 41.5375L79.8911 41.4767C79.9524 41.464 80.0057 41.4038 80.0057 41.2702V39.1084C80.0057 39.0148 79.972 38.9018 79.8647 38.8817L79.5273 38.8283C79.4605 38.815 79.4402 38.7749 79.4402 38.728V38.5944C79.4402 38.5343 79.474 38.5008 79.5347 38.4947L80.5241 38.3744C80.6045 38.3677 80.6382 38.4145 80.645 38.4947C80.645 38.4947 80.6855 38.8817 80.6922 38.9346H80.7192C80.9953 38.5944 81.2842 38.341 81.7081 38.341C81.8228 38.341 81.9504 38.3611 82.0454 38.4012C82.0921 38.4212 82.1055 38.4741 82.0921 38.5348L81.9712 39.0683ZM83.1489 37.8336C82.8055 37.8336 82.6779 37.6138 82.6779 37.3932C82.6779 37.1933 82.8055 36.9533 83.1625 36.9533C83.4857 36.9533 83.6397 37.1264 83.6397 37.3865C83.6397 37.6672 83.452 37.8336 83.1489 37.8336ZM84.1378 41.8243C83.9625 41.8957 83.7753 41.9342 83.5857 41.9379C83.0072 41.9379 82.7718 41.6304 82.7718 41.1298V39.1017C82.7718 39.0082 82.7379 38.8952 82.6306 38.8751L82.3546 38.8216C82.2871 38.8082 82.2669 38.7749 82.2669 38.728V38.5944C82.2669 38.5343 82.3013 38.5008 82.3613 38.4947L83.4244 38.3744C83.4784 38.3677 83.5391 38.4078 83.5391 38.4613V41.0502C83.5391 41.2768 83.6336 41.4105 83.8354 41.4105C83.9119 41.41 83.9874 41.394 84.0575 41.3637C84.0912 41.3504 84.1648 41.3637 84.1715 41.4573L84.1992 41.7106C84.2028 41.7336 84.1987 41.7571 84.1877 41.7776C84.1766 41.7981 84.1591 41.8145 84.1378 41.8243ZM87.1668 41.6979C86.9854 41.8043 86.5946 41.9507 86.1707 41.9507C85.107 41.9507 84.4745 41.1833 84.4745 40.1693C84.4745 39.0816 85.2892 38.3343 86.2652 38.3343C86.6418 38.3343 86.9178 38.3945 87.0184 38.4346C87.0657 38.4546 87.1061 38.5014 87.1061 38.5543V39.3551C87.1061 39.4158 87.0724 39.4486 87.0117 39.4486H86.8099C86.7626 39.4486 86.7228 39.4219 86.7092 39.3618L86.6479 39.0816C86.6081 38.9079 86.467 38.835 86.2112 38.835C85.6118 38.835 85.3095 39.3483 85.3095 40.0355C85.3095 40.7033 85.5855 41.3704 86.332 41.3704C86.5743 41.3704 86.8504 41.2635 86.9854 41.1906C87.0454 41.1565 87.113 41.1833 87.1326 41.2501L87.2136 41.5637C87.227 41.6244 87.2074 41.6712 87.1668 41.6979ZM91.1916 40.1024C91.1443 40.1024 91.118 40.049 91.1241 39.9894L91.1443 39.722C91.151 39.6625 91.1916 39.6425 91.2449 39.6425C91.878 39.6425 92.4166 39.4085 92.4166 38.708C92.4166 38.0609 91.9584 37.8404 91.3529 37.8404H91.0033C90.9627 37.8404 90.9155 37.8737 90.9155 37.9206V41.21C90.9155 41.357 90.9695 41.4306 91.0364 41.4372L91.4946 41.5041C91.562 41.5101 91.5885 41.5637 91.5885 41.6171V41.7569C91.5885 41.8236 91.5479 41.8577 91.4879 41.8577H89.5831C89.5218 41.8577 89.482 41.8243 89.482 41.7574V41.6177C89.482 41.5637 89.509 41.5174 89.5764 41.5041L89.9329 41.4372C90.0003 41.4239 90.0536 41.357 90.0536 41.21V38.0008C90.0536 37.8537 90.0003 37.7869 89.9329 37.7742L89.5764 37.7006C89.509 37.6873 89.482 37.6399 89.482 37.587V37.4534C89.482 37.3865 89.5224 37.3537 89.5831 37.3537H91.5615C92.5982 37.3537 93.3115 37.6873 93.3115 38.6345C93.3115 39.6552 92.2749 40.1358 91.1916 40.1024ZM96.2866 39.0683C96.2732 39.115 96.2192 39.1619 96.1517 39.1351C96.011 39.0862 95.8634 39.0591 95.7144 39.0549C95.4045 39.0549 95.0886 39.2554 95.0886 39.6151V41.2702C95.0886 41.4038 95.142 41.4707 95.2028 41.4767L95.6069 41.5375C95.6745 41.5436 95.6941 41.5903 95.6941 41.6371V41.7647C95.6941 41.8243 95.6604 41.8577 95.6002 41.8577H93.9109C93.8495 41.8577 93.8164 41.8243 93.8164 41.7642V41.6371C93.8164 41.5903 93.8434 41.5502 93.9042 41.5375L94.2065 41.4767C94.2679 41.464 94.3212 41.4038 94.3212 41.2702V39.1084C94.3212 39.0148 94.2875 38.9018 94.1802 38.8817L93.8434 38.8283C93.7759 38.815 93.7557 38.7749 93.7557 38.728V38.5944C93.7557 38.5343 93.7894 38.5008 93.8502 38.4947L94.8396 38.3744C94.92 38.3677 94.9537 38.4145 94.9604 38.4947C94.9604 38.4947 95.0009 38.8817 95.0077 38.9346H95.0347C95.3108 38.5944 95.6002 38.341 96.0241 38.341C96.1382 38.341 96.2664 38.3611 96.3603 38.4012C96.4075 38.4212 96.4216 38.4741 96.4075 38.5348L96.2866 39.0683ZM98.1778 38.7548C97.5785 38.7548 97.3632 39.4152 97.37 39.8557C97.37 39.9225 97.3767 39.9359 97.4442 39.9426C97.5386 39.9487 97.6528 39.956 97.7675 39.956C98.2385 39.956 98.7293 39.7956 98.7293 39.3082C98.7301 39.1625 98.6726 39.0223 98.5691 38.9186C98.4658 38.8148 98.325 38.7559 98.1778 38.7548ZM97.9018 40.4031C97.7472 40.4031 97.6062 40.4031 97.4779 40.3891C97.424 40.3831 97.397 40.3958 97.4043 40.4627C97.4442 41.0302 97.9491 41.3704 98.4674 41.3704C98.7303 41.3656 98.9884 41.2994 99.2206 41.1772C99.2881 41.1432 99.3495 41.1906 99.3618 41.244L99.436 41.5637C99.4418 41.5886 99.4397 41.6148 99.4303 41.6386C99.4207 41.6625 99.4041 41.6829 99.3827 41.6973C99.0646 41.8617 98.7114 41.9486 98.3527 41.9507C97.1749 41.9507 96.5898 41.1973 96.5898 40.1292C96.5898 39.0015 97.4037 38.3143 98.2852 38.3143C98.9317 38.3143 99.49 38.708 99.49 39.335C99.49 40.0891 98.6692 40.4031 97.9018 40.4031ZM101.166 41.9312C100.83 41.9312 100.439 41.8644 100.284 41.8109C100.23 41.7908 100.183 41.7507 100.183 41.6906V40.9633C100.183 40.9031 100.21 40.8698 100.278 40.8698H100.466C100.52 40.8698 100.554 40.9031 100.567 40.9633L100.627 41.1966C100.675 41.3705 100.877 41.464 101.179 41.464C101.523 41.464 101.819 41.2768 101.819 40.9633C101.819 40.6899 101.611 40.5502 101.328 40.436L100.917 40.2695C100.513 40.1024 100.203 39.8624 100.203 39.3751C100.203 38.6879 100.87 38.3343 101.489 38.3343C101.819 38.3343 102.101 38.3878 102.27 38.4473C102.323 38.468 102.364 38.5008 102.364 38.5676V39.2287C102.364 39.2882 102.33 39.3283 102.263 39.3283H102.108C102.061 39.3283 102.028 39.3016 102.007 39.2353L101.954 39.0288C101.913 38.8678 101.745 38.7882 101.482 38.7882C101.213 38.7882 100.93 38.9218 100.93 39.1886C100.93 39.4353 101.133 39.5422 101.388 39.6491L101.779 39.8089C102.182 39.9754 102.56 40.2294 102.56 40.7628C102.56 41.5241 101.846 41.9312 101.166 41.9312ZM104.673 38.7548C104.073 38.7548 103.858 39.4152 103.865 39.8557C103.865 39.9225 103.872 39.9359 103.938 39.9426C104.034 39.9487 104.147 39.956 104.262 39.956C104.733 39.956 105.225 39.7956 105.225 39.3082C105.226 39.1624 105.168 39.0222 105.064 38.9184C104.961 38.8146 104.82 38.7557 104.673 38.7548ZM104.397 40.4031C104.242 40.4031 104.1 40.4031 103.972 40.3891C103.919 40.3831 103.892 40.3958 103.899 40.4627C103.939 41.0302 104.444 41.3704 104.962 41.3704C105.225 41.3654 105.483 41.2992 105.716 41.1772C105.783 41.1432 105.844 41.1906 105.857 41.244L105.931 41.5637C105.937 41.5886 105.935 41.6148 105.925 41.6386C105.915 41.6624 105.899 41.6829 105.878 41.6973C105.559 41.8617 105.206 41.9486 104.848 41.9507C103.67 41.9507 103.085 41.1973 103.085 40.1292C103.085 39.0015 103.899 38.3143 104.78 38.3143C105.427 38.3143 105.985 38.708 105.985 39.335C105.985 40.0891 105.163 40.4031 104.397 40.4031ZM109 39.0683C108.987 39.115 108.933 39.1619 108.865 39.1351C108.725 39.0862 108.577 39.0591 108.428 39.0549C108.118 39.0549 107.802 39.2554 107.802 39.6151V41.2702C107.802 41.4038 107.856 41.4707 107.917 41.4767L108.321 41.5375C108.388 41.5436 108.408 41.5903 108.408 41.6371V41.7647C108.408 41.8243 108.374 41.8577 108.314 41.8577H106.625C106.563 41.8577 106.53 41.8243 106.53 41.7642V41.6371C106.53 41.5903 106.557 41.5502 106.618 41.5375L106.921 41.4767C106.981 41.464 107.035 41.4038 107.035 41.2702V39.1084C107.035 39.0148 107.001 38.9018 106.894 38.8817L106.557 38.8283C106.49 38.815 106.47 38.7749 106.47 38.728V38.5944C106.47 38.5343 106.503 38.5008 106.564 38.4947L107.553 38.3744C107.634 38.3677 107.667 38.4145 107.674 38.4947C107.674 38.4947 107.715 38.8817 107.721 38.9346H107.748C108.025 38.5944 108.314 38.341 108.738 38.341C108.852 38.341 108.98 38.3611 109.074 38.4012C109.121 38.4212 109.135 38.4741 109.121 38.5348L109 39.0683ZM113.025 38.7876L112.917 38.8283C112.844 38.8544 112.782 38.9079 112.722 39.0683L111.652 41.8444C111.639 41.8777 111.619 41.8978 111.598 41.8978H110.932C110.912 41.8978 110.892 41.8777 110.878 41.8444L109.774 39.0416C109.714 38.8817 109.64 38.8483 109.586 38.8283L109.478 38.7882C109.418 38.7681 109.391 38.7348 109.391 38.6879V38.5609C109.391 38.5008 109.424 38.468 109.485 38.468H110.999C111.06 38.468 111.093 38.5008 111.093 38.5609V38.6879C111.093 38.7348 111.066 38.7749 110.999 38.7882L110.73 38.8416C110.656 38.8544 110.575 38.9085 110.622 39.0483L111.228 40.8029C111.282 40.9567 111.315 41.0836 111.336 41.2167H111.349C111.369 41.097 111.423 40.9232 111.463 40.8096L112.069 39.0483C112.117 38.9085 112.036 38.8544 111.962 38.8416L111.692 38.7882C111.625 38.7749 111.598 38.7348 111.598 38.6879V38.5609C111.598 38.5008 111.632 38.468 111.692 38.468H113.018C113.079 38.468 113.113 38.5008 113.113 38.5609V38.6879C113.113 38.7348 113.086 38.7676 113.025 38.7876ZM115.24 40.2427C115.24 40.1959 115.219 40.1826 115.172 40.1826C114.337 40.1826 114.041 40.4894 114.041 40.863C114.041 41.1772 114.284 41.3838 114.613 41.3838C115.017 41.3838 115.238 41.0903 115.238 40.8163L115.24 40.2427ZM116.418 41.8309C116.228 41.8938 116.031 41.9276 115.832 41.9312C115.482 41.9312 115.341 41.7106 115.321 41.4634H115.293C115.044 41.7173 114.749 41.9312 114.25 41.9312C113.678 41.9312 113.288 41.5241 113.288 40.9901C113.288 40.103 114.122 39.7287 115.172 39.7354C115.226 39.7354 115.24 39.6753 115.24 39.6425V39.4887C115.24 39.0616 114.909 38.8751 114.499 38.8751C114.21 38.8751 113.941 38.9613 113.752 39.0683C113.685 39.1084 113.624 39.0884 113.604 39.0082L113.53 38.6679C113.517 38.6077 113.53 38.5543 113.59 38.5343C113.886 38.4145 114.291 38.3338 114.701 38.3338C115.543 38.3338 115.979 38.7213 115.979 39.5756V41.1966C115.979 41.3236 116.054 41.4038 116.168 41.4038C116.235 41.4038 116.275 41.3905 116.337 41.3704C116.39 41.357 116.437 41.3838 116.445 41.4507L116.478 41.7173C116.485 41.7842 116.457 41.8176 116.418 41.8309ZM118.908 41.7647C118.726 41.851 118.396 41.9312 118.107 41.9312C117.474 41.9312 117.064 41.5302 117.064 40.9031V39.0488C117.064 39.002 117.024 38.9686 116.989 38.9686H116.545C116.505 38.9686 116.492 38.9353 116.498 38.8824L116.538 38.5549C116.538 38.5281 116.559 38.4953 116.585 38.4953H117.01C117.07 38.4953 117.091 38.4552 117.091 38.4018V37.9546C117.091 37.8817 117.103 37.8276 117.179 37.8008L117.716 37.6076C117.797 37.581 117.825 37.6076 117.825 37.6878V38.4218C117.825 38.4619 117.858 38.4947 117.899 38.4947H118.746C118.773 38.4947 118.8 38.5215 118.8 38.5482V38.9152C118.8 38.9353 118.773 38.9686 118.746 38.9686H117.912C117.864 38.9686 117.825 39.002 117.825 39.0488V40.7307C117.825 41.0909 118.006 41.3577 118.383 41.3577C118.524 41.3577 118.658 41.3176 118.793 41.2708C118.848 41.2507 118.901 41.2775 118.915 41.3442L118.968 41.6377C118.974 41.6627 118.972 41.689 118.96 41.7122C118.949 41.7353 118.931 41.7541 118.907 41.7653M119.998 37.8336C119.654 37.8336 119.526 37.6138 119.526 37.3932C119.526 37.1933 119.655 36.9533 120.012 36.9533C120.334 36.9533 120.489 37.1264 120.489 37.3865C120.489 37.6672 120.301 37.8336 119.998 37.8336ZM120.987 41.8243C120.866 41.8777 120.637 41.9379 120.436 41.9379C119.856 41.9379 119.621 41.6304 119.621 41.1298V39.1017C119.621 39.0082 119.588 38.8952 119.48 38.8751L119.204 38.8216C119.136 38.8082 119.116 38.7749 119.116 38.728V38.5944C119.116 38.5343 119.151 38.5008 119.21 38.4947L120.274 38.3744C120.328 38.3677 120.388 38.4078 120.388 38.4613V41.0502C120.388 41.2768 120.482 41.4105 120.684 41.4105C120.76 41.41 120.837 41.394 120.906 41.3637C120.94 41.3504 121.014 41.3637 121.021 41.4573L121.048 41.7106C121.052 41.7336 121.047 41.7571 121.037 41.7776C121.026 41.7981 121.009 41.8145 120.987 41.8243ZM122.986 38.7749C122.34 38.7749 122.158 39.3824 122.158 40.0756C122.158 40.9505 122.495 41.4974 122.993 41.4974C123.632 41.4974 123.841 40.9232 123.841 40.2026C123.841 39.335 123.505 38.7749 122.986 38.7749ZM122.966 41.9647C121.903 41.9647 121.323 41.1906 121.323 40.1893C121.323 39.1819 121.977 38.3143 123.033 38.3143C124.09 38.3143 124.676 39.0816 124.676 40.0763C124.676 41.0903 124.023 41.9647 122.966 41.9647ZM128.997 41.8577H127.408C127.347 41.8577 127.314 41.8243 127.314 41.7642V41.6371C127.314 41.5903 127.34 41.5502 127.402 41.5375L127.705 41.4767C127.765 41.464 127.819 41.4038 127.819 41.2702V39.6625C127.819 39.1686 127.536 38.9079 127.105 38.9079C126.688 38.9079 126.358 39.1618 126.358 39.5422V41.2702C126.358 41.4038 126.413 41.464 126.472 41.4767L126.775 41.5375C126.837 41.5502 126.863 41.5903 126.863 41.6371V41.7647C126.863 41.8243 126.83 41.8577 126.768 41.8577H125.18C125.12 41.8577 125.086 41.8243 125.086 41.7642V41.6371C125.086 41.5903 125.113 41.5502 125.174 41.5375L125.477 41.4767C125.537 41.464 125.592 41.4038 125.592 41.2702V39.1011C125.592 39.0082 125.557 38.8945 125.45 38.8751L125.12 38.8216C125.053 38.8082 125.032 38.7681 125.032 38.7213V38.5944C125.032 38.5343 125.066 38.5008 125.126 38.4947L126.123 38.3744C126.197 38.3677 126.231 38.4078 126.238 38.4747L126.277 38.8416H126.305C126.6 38.5476 126.991 38.341 127.476 38.341C128.067 38.341 128.586 38.6947 128.586 39.3751V41.2708C128.586 41.4038 128.64 41.464 128.699 41.4773L129.002 41.5375C129.064 41.5502 129.09 41.5903 129.09 41.6371V41.7647C129.09 41.8243 129.057 41.8577 128.997 41.8577ZM130.282 38.8192C130.39 38.8192 130.456 38.7663 130.456 38.6837V38.6788C130.456 38.5919 130.39 38.5434 130.282 38.5434H130.064V38.8192H130.282ZM129.898 38.3939H130.289C130.405 38.3939 130.495 38.4285 130.555 38.4887C130.579 38.5124 130.599 38.5406 130.61 38.5719C130.622 38.603 130.628 38.6363 130.627 38.6697V38.6746C130.627 38.8143 130.544 38.9018 130.423 38.9358L130.659 39.2645H130.461L130.247 38.9637H130.064V39.2645H129.898V38.3939ZM130.986 38.8538V38.8489C130.986 38.4377 130.665 38.1047 130.237 38.1047C130.138 38.1041 130.04 38.1231 129.948 38.1606C129.857 38.1981 129.773 38.2533 129.703 38.323C129.632 38.3928 129.578 38.4756 129.54 38.5667C129.503 38.6579 129.484 38.7555 129.486 38.8538V38.858C129.486 39.2694 129.807 39.6024 130.234 39.6024C130.333 39.603 130.431 39.5839 130.523 39.5465C130.614 39.509 130.698 39.4538 130.768 39.3842C130.838 39.3145 130.894 39.2318 130.931 39.1407C130.969 39.0496 130.987 38.9521 130.986 38.8538ZM129.398 38.858V38.8538C129.398 38.6333 129.487 38.4218 129.644 38.266C129.801 38.1101 130.015 38.0226 130.237 38.0226C130.708 38.0226 131.074 38.3963 131.074 38.8489V38.8538C131.074 39.0744 130.985 39.2858 130.827 39.4416C130.67 39.5975 130.456 39.685 130.234 39.685C130.123 39.6854 130.015 39.6645 129.914 39.6231C129.811 39.5818 129.719 39.5209 129.642 39.4441C129.564 39.3674 129.503 39.2761 129.46 39.1756C129.418 39.0752 129.397 38.9668 129.398 38.858Z" fill="white"></path>
    </g>
  </g>
  <defs>
    <clipPath id="clip0_943_1945">
      <rect width="135.567" height="45.5686" fill="white"></rect>
    </clipPath>
  </defs>
</svg>
